<svg xmlns:dc="http://purl.org/dc/elements/1.1/" xmlns:cc="http://creativecommons.org/ns#" xmlns:rdf="http://www.w3.org/1999/02/22-rdf-syntax-ns#" xmlns:svg="http://www.w3.org/2000/svg" xmlns="http://www.w3.org/2000/svg" xmlns:sodipodi="http://sodipodi.sourceforge.net/DTD/sodipodi-0.dtd" xmlns:inkscape="http://www.inkscape.org/namespaces/inkscape" width="19.711458mm" height="19.711458mm" viewBox="0 0 19.711458 19.711458" version="1.1" id="svg141" inkscape:version="0.92.3 (2405546, 2018-03-11)" sodipodi:docname="paper_white.svg"> <g inkscape:label="Layer 1" inkscape:groupmode="layer" id="layer1" transform="translate(-46.08475,-141.24546)"> <g transform="matrix(0.26458333,0,0,0.26458333,-41.161603,100.56577)" style="fill:none;stroke:#feffff;stroke-width:2.5" id="g58"><path style="fill:#2B7A77" d="m 403,191 a 36,36 0 0 1 -36,36 36,36 0 0 1 -36,-36 36,36 0 0 1 36,-36 36,36 0 0 1 36,36 z" id="circle52" inkscape:connector-curvature="0"/><path d="m 371.735,165.134 c 0,6.523 0,13.003 0,19.58 5.366,-0.793 10.732,-1.586 16.152,-2.388 0,11.142 0,22.207 0,33.318 -12.781,0 -25.518,0 -38.321,0 0,-16.814 0,-33.626 0,-50.511 7.376,10e-4 14.767,10e-4 22.169,10e-4 z" id="path54" inkscape:connector-curvature="0"/><path d="M 387.888,182.326 371.73499,165.134" id="line56" inkscape:connector-curvature="0"/>^</g> </g></svg>