<svg xmlns:dc="http://purl.org/dc/elements/1.1/" xmlns:cc="http://creativecommons.org/ns#" xmlns:rdf="http://www.w3.org/1999/02/22-rdf-syntax-ns#" xmlns:svg="http://www.w3.org/2000/svg" xmlns="http://www.w3.org/2000/svg" xmlns:sodipodi="http://sodipodi.sourceforge.net/DTD/sodipodi-0.dtd" xmlns:inkscape="http://www.inkscape.org/namespaces/inkscape" width="19.711458mm" height="19.711458mm" viewBox="0 0 19.711458 19.711458" version="1.1" id="svg111" inkscape:version="0.92.3 (2405546, 2018-03-11)" sodipodi:docname="rock_white.svg"> <g inkscape:label="Layer 1" inkscape:groupmode="layer" id="layer1" transform="translate(-67.251418,-77.745462)"> <g transform="matrix(0.26458333,0,0,0.26458333,-4.1199357,9.8136919)" style="fill:none;stroke:#ffffff;stroke-width:2.5" id="g28"> <path style="fill:#17242A" d="m 343,294 a 36,36 0 0 1 -36,36 36,36 0 0 1 -36,-36 36,36 0 0 1 36,-36 36,36 0 0 1 36,36 z" id="circle24" inkscape:connector-curvature="0"/> <path d="m 327.508,311.029 c -10.746,4.225 -9.625,2.463 -12.179,3.486 -0.374,0.149 -7.982,-4.01 -10.865,-4.261 -2.885,-0.251 -13.925,2.117 -19.819,-3.08 -5.893,-5.2 -2.532,-16.007 -2.532,-16.007 0,0 0.391,-14.145 11.382,-18.43 9.15,-3.568 12.924,-2.002 12.924,-2.002 l 12.961,3.926 4.157,3.321 c 0,0 6.667,10.076 7.711,11.343 1.043,1.269 8.804,16.773 -3.74,21.704 z" id="path26" inkscape:connector-curvature="0"/> </g> </g></svg>